<?xml version="1.0" encoding="UTF-8" standalone="no" ?>
<!DOCTYPE svg PUBLIC "-//W3C//DTD SVG 1.1//EN" "http://www.w3.org/Graphics/SVG/1.1/DTD/svg11.dtd">
<svg xmlns="http://www.w3.org/2000/svg" xmlns:xlink="http://www.w3.org/1999/xlink" version="1.1" width="1080" height="1080" viewBox="0 0 1080 1080" xml:space="preserve">
<desc>Created with Fabric.js 5.2.4</desc>
<defs>
</defs>
<rect x="0" y="0" width="100%" height="100%" fill="transparent"></rect>
<g transform="matrix(1 0 0 1 540 540)" id="ac24ef92-5398-42d2-a924-042c548fefc5"  >
<rect style="stroke: none; stroke-width: 1; stroke-dasharray: none; stroke-linecap: butt; stroke-dashoffset: 0; stroke-linejoin: miter; stroke-miterlimit: 4; fill: rgb(255,255,255); fill-rule: nonzero; opacity: 1; visibility: hidden;" vector-effect="non-scaling-stroke"  x="-540" y="-540" rx="0" ry="0" width="1080" height="1080" />
</g>
<g transform="matrix(1 0 0 1 540 540)" id="4968658b-0c65-4f4e-b011-74b3a24075f3"  >
</g>
<g transform="matrix(0.83 0 0 0.83 540 509.84)"  >
<g style="" vector-effect="non-scaling-stroke"   >
		<g transform="matrix(1 0 0 1 -471 0)"  >
<path style="stroke: none; stroke-width: 1; stroke-dasharray: none; stroke-linecap: butt; stroke-dashoffset: 0; stroke-linejoin: miter; stroke-miterlimit: 4; fill: rgb(2,75,145); fill-rule: nonzero; opacity: 1;" vector-effect="non-scaling-stroke"  transform=" translate(-116.01, -198.01)" d="M 124.93 201.69 L 124.22000000000001 203.39 L 124.22000000000001 306.66999999999996 L 128.33 308.43999999999994 L 168.11 270.28 L 168.11 257.96 L 166.13000000000002 257.10999999999996 L 137.25000000000003 284.78999999999996 L 135.12000000000003 283.93999999999994 L 135.12000000000003 255.47999999999993 L 135.97000000000003 253.70999999999992 L 167.40000000000003 223.54999999999993 L 168.11000000000004 221.77999999999992 L 168.11000000000004 210.52999999999992 L 166.13000000000005 209.6699999999999 L 137.25000000000006 237.3499999999999 L 135.12000000000006 236.42999999999992 L 135.12000000000006 207.5399999999999 L 135.55000000000007 206.61999999999992 L 168.12000000000006 175.39999999999992 L 168.12000000000006 163.07999999999993 L 166.14000000000007 162.22999999999993 L 124.94000000000007 201.65999999999994 Z M 116.01 40.849999999999994 L 38.71 114.97 L 38.71 280.98 L 116.00999999999999 355.16 L 193.31 280.98 L 193.31 114.97 L 116.01 40.85 Z M 184.53 277.28999999999996 L 116.01 343.04999999999995 L 47.34 277.28999999999996 L 47.34 118.72 L 116.01 52.88 L 184.53 118.72 L 184.53 277.28999999999996 Z M 165.26 178.71999999999997 C 165.44 178.56999999999996 165.57999999999998 178.23999999999998 165.57 177.98999999999998 L 165.26 178.71999999999997 Z M 96.6 194.53999999999996 L 96.6 283.72999999999996 L 94.47999999999999 284.59 L 75.07999999999998 265.96999999999997 L 74.79999999999998 265.04999999999995 L 74.79999999999998 170.74999999999994 L 65.87999999999998 162.24999999999994 L 63.759999999999984 163.09999999999994 L 63.759999999999984 269.2199999999999 L 64.60999999999999 270.9799999999999 L 103.40999999999998 308.2199999999999 L 107.49999999999999 306.44999999999993 L 107.49999999999999 202.17999999999995 L 98.58999999999999 193.68999999999994 L 96.6 194.53999999999994 Z M 115.97999999999999 78.61999999999996 L 115.96 78.58999999999996 L 107.49 97.24999999999996 L 107.5 97.24999999999996 L 107.5 97.26999999999995 L 107.47 97.26999999999995 L 107.49 97.24999999999996 L 106.61999999999999 97.64999999999996 L 105.36999999999999 98.18999999999997 L 104.75999999999999 98.01999999999997 L 94.10999999999999 94.96999999999997 L 94.10999999999999 95.01999999999997 L 94.03999999999999 94.99999999999997 L 100.27 122.89999999999998 L 99.08 123.67999999999998 L 97.53999999999999 124.63999999999997 L 90.13999999999999 118.75999999999998 L 83.16999999999999 113.17999999999998 L 83.14999999999999 113.20999999999998 L 83.13 113.18999999999998 L 79.31 119.41999999999999 L 78.45 119.85 L 77.62 120.25 L 77.65 120.25 L 77.61 120.27 L 77.61 120.27 L 77.61 120.25 L 64.96 118.83 L 66.30999999999999 128.77 L 67.41999999999999 137.25 L 66.28999999999999 139.09 L 62.17999999999999 140.51 L 97.13 172.94 L 98.53999999999999 174.25 L 98.52 174.23 L 98.53999999999999 174.25 L 98.53999999999999 174.25 L 98.57 174.28 L 98.58999999999999 174.28 L 103.07999999999998 177.03 L 108.05999999999999 178.93 L 113.29999999999998 179.9 L 118.62999999999998 179.9 L 123.86999999999998 178.93 L 128.83999999999997 177.03 L 133.32999999999998 174.28 L 133.39999999999998 174.28 L 156.7 152.57 L 169.69 140.48999999999998 L 164.75 138.79999999999998 L 164.75 138.82 L 164.69 138.79999999999998 L 164.67 138.76999999999998 L 164.75 138.79999999999998 L 163.59 136.82999999999998 L 163.59 136.85999999999999 L 163.57 136.82 L 163.57 136.79 L 163.59 136.82 L 165.61 126.02 L 166.97000000000003 118.83 L 166.95000000000002 118.83 L 166.95000000000002 118.81 L 153.63000000000002 120.3 L 151.84000000000003 119.34 L 148.75000000000003 113.15 L 148.70000000000002 113.19000000000001 L 148.70000000000002 113.16000000000001 L 134.59000000000003 124.47000000000001 L 134.40000000000003 124.62000000000002 L 134.40000000000003 124.62000000000002 L 131.61000000000004 122.87000000000002 L 131.61000000000004 122.89000000000001 L 131.56000000000003 122.86000000000001 L 131.58000000000004 122.75000000000001 L 131.60000000000005 122.87000000000002 L 137.81000000000006 94.93000000000002 L 132.79000000000005 96.37000000000002 L 126.48000000000005 98.15000000000002 L 124.48000000000005 97.23000000000002 L 115.99000000000005 78.55000000000001 L 115.97000000000006 78.58000000000001 Z M 138.17 205.12999999999997 L 138.48 204.39999999999998 C 138.29 204.55999999999997 138.14999999999998 204.89 138.17 205.12999999999997 Z" stroke-linecap="round" />
</g>
		<g transform="matrix(1 0 0 1 -273.09 -86.94)"  >
<path style="stroke: none; stroke-width: 1; stroke-dasharray: none; stroke-linecap: butt; stroke-dashoffset: 0; stroke-linejoin: miter; stroke-miterlimit: 4; fill: rgb(2,75,145); fill-rule: nonzero; opacity: 1;" vector-effect="non-scaling-stroke"  transform=" translate(-313.91, -111.07)" d="M 285.09 49.56 L 285.09 121.39 C 285.09 148.33 297.11999999999995 159.82 313.28 159.82 C 331.05999999999995 159.82 342.72999999999996 147.97 342.72999999999996 121.38999999999999 L 342.72999999999996 49.56 L 358.53999999999996 49.56 L 358.53999999999996 120.32 C 358.53999999999996 157.49 338.96 172.57999999999998 312.74999999999994 172.57999999999998 C 287.9699999999999 172.57999999999998 269.28999999999996 158.57 269.28999999999996 120.85 L 269.28999999999996 49.56 L 285.09 49.56 Z" stroke-linecap="round" />
</g>
		<g transform="matrix(1 0 0 1 -168.72 -71.76)"  >
<path style="stroke: none; stroke-width: 1; stroke-dasharray: none; stroke-linecap: butt; stroke-dashoffset: 0; stroke-linejoin: miter; stroke-miterlimit: 4; fill: rgb(2,75,145); fill-rule: nonzero; opacity: 1;" vector-effect="non-scaling-stroke"  transform=" translate(-418.28, -126.25)" d="M 381.65 107.21 C 381.65 98.05 381.46999999999997 90.86999999999999 380.92999999999995 83.69 L 394.93999999999994 83.69 L 395.8399999999999 98.05 L 396.19999999999993 98.05 C 400.50999999999993 89.97 410.56999999999994 81.89 424.92999999999995 81.89 C 436.9599999999999 81.89 455.63999999999993 89.07 455.63999999999993 118.89 L 455.63999999999993 170.61 L 439.8399999999999 170.61 L 439.8399999999999 120.50000000000001 C 439.8399999999999 106.50000000000001 434.62999999999994 94.82000000000002 419.7299999999999 94.82000000000002 C 409.4899999999999 94.82000000000002 401.4099999999999 102.18000000000002 398.5399999999999 110.98000000000002 C 397.8199999999999 112.95000000000002 397.4599999999999 115.64000000000001 397.4599999999999 118.34000000000002 L 397.4599999999999 170.60000000000002 L 381.6499999999999 170.60000000000002 L 381.6499999999999 107.21000000000002 Z" stroke-linecap="round" />
</g>
		<g transform="matrix(1 0 0 1 -101.05 -88.02)"  >
<path style="stroke: none; stroke-width: 1; stroke-dasharray: none; stroke-linecap: butt; stroke-dashoffset: 0; stroke-linejoin: miter; stroke-miterlimit: 4; fill: rgb(2,75,145); fill-rule: nonzero; opacity: 1;" vector-effect="non-scaling-stroke"  transform=" translate(-485.96, -109.99)" d="M 495.75 59.25 C 495.75 64.64 491.98 68.95 485.69 68.95 C 479.94 68.95 476.17 64.64 476.17 59.25 C 476.17 53.86 480.12 49.38 486.05 49.38 C 491.98 49.38 495.75 53.690000000000005 495.75 59.25 Z M 478.15 170.6 L 478.15 83.68 L 493.95 83.68 L 493.95 170.60000000000002 L 478.15 170.60000000000002 Z" stroke-linecap="round" />
</g>
		<g transform="matrix(1 0 0 1 -40.5 -92.15)"  >
<path style="stroke: none; stroke-width: 1; stroke-dasharray: none; stroke-linecap: butt; stroke-dashoffset: 0; stroke-linejoin: miter; stroke-miterlimit: 4; fill: rgb(2,75,145); fill-rule: nonzero; opacity: 1;" vector-effect="non-scaling-stroke"  transform=" translate(-546.51, -105.85)" d="M 519.48 170.6 L 519.48 95.71 L 507.45000000000005 95.71 L 507.45000000000005 83.67999999999999 L 519.48 83.67999999999999 L 519.48 78.82 C 519.48 56.019999999999996 532.95 41.10999999999999 557.37 41.10999999999999 C 565.45 41.10999999999999 574.97 43.61999999999999 579.46 46.85999999999999 L 574.97 58.89999999999999 C 571.02 56.19999999999999 564.38 53.86999999999999 556.65 53.86999999999999 C 539.9499999999999 53.86999999999999 535.1 65.53999999999999 535.1 79.36999999999999 L 535.1 83.67999999999999 L 585.5600000000001 83.67999999999999 L 585.5600000000001 170.6 L 569.7500000000001 170.6 L 569.7500000000001 95.71 L 535.0900000000001 95.71 L 535.0900000000001 170.6 L 519.4700000000001 170.6 Z" stroke-linecap="round" />
</g>
		<g transform="matrix(1 0 0 1 54.89 -70.78)"  >
<path style="stroke: none; stroke-width: 1; stroke-dasharray: none; stroke-linecap: butt; stroke-dashoffset: 0; stroke-linejoin: miter; stroke-miterlimit: 4; fill: rgb(2,75,145); fill-rule: nonzero; opacity: 1;" vector-effect="non-scaling-stroke"  transform=" translate(-641.9, -127.22)" d="M 618.65 130.01 C 619.01 151.38 632.48 160.18 648.4599999999999 160.18 C 659.7699999999999 160.18 666.78 158.20000000000002 672.5199999999999 155.69 L 675.3899999999999 167 C 669.8199999999998 169.52 660.1299999999999 172.57 646.2999999999998 172.57 C 619.5399999999998 172.57 603.5599999999998 154.79 603.5599999999998 128.57 C 603.5599999999998 102.35 619.0099999999999 81.88 644.3299999999998 81.88 C 672.8799999999998 81.88 680.2499999999998 106.66 680.2499999999998 122.65 C 680.2499999999998 125.88000000000001 680.0599999999997 128.22 679.7099999999998 130.01000000000002 L 618.6499999999999 130.01000000000002 Z M 664.98 118.69999999999999 C 665.16 108.82 660.85 93.19999999999999 643.07 93.19999999999999 C 626.9100000000001 93.19999999999999 620.08 107.73999999999998 618.83 118.69999999999999 L 664.98 118.69999999999999 Z" stroke-linecap="round" />
</g>
		<g transform="matrix(1 0 0 1 146.76 -90.17)"  >
<path style="stroke: none; stroke-width: 1; stroke-dasharray: none; stroke-linecap: butt; stroke-dashoffset: 0; stroke-linejoin: miter; stroke-miterlimit: 4; fill: rgb(2,75,145); fill-rule: nonzero; opacity: 1;" vector-effect="non-scaling-stroke"  transform=" translate(-733.77, -107.84)" d="M 774.01 43.1 L 774.01 148.15 C 774.01 155.87 774.37 164.67000000000002 774.72 170.6 L 760.71 170.6 L 759.99 155.51 L 759.45 155.51 C 754.7800000000001 165.20999999999998 744.37 172.57 730.1800000000001 172.57 C 709.1700000000001 172.57 692.83 154.79 692.83 128.39 C 692.6500000000001 99.47999999999999 710.7900000000001 81.86999999999998 731.8000000000001 81.86999999999998 C 745.2700000000001 81.86999999999998 754.07 88.15999999999998 758.0200000000001 94.97999999999998 L 758.3800000000001 94.97999999999998 L 758.3800000000001 43.1 L 774.0000000000001 43.1 Z M 758.39 119.06 C 758.39 117.09 758.21 114.4 757.67 112.41 C 755.3399999999999 102.53999999999999 746.7199999999999 94.27 734.86 94.27 C 718.52 94.27 708.82 108.64 708.82 127.67999999999999 C 708.82 145.28 717.62 159.82 734.5 159.82 C 745.1 159.82 754.79 152.64 757.67 140.97 C 758.2099999999999 138.82 758.39 136.66 758.39 134.15 L 758.39 119.06 Z" stroke-linecap="round" />
</g>
		<g transform="matrix(1 0 0 1 -279.19 56.66)"  >
<path style="stroke: none; stroke-width: 1; stroke-dasharray: none; stroke-linecap: butt; stroke-dashoffset: 0; stroke-linejoin: miter; stroke-miterlimit: 4; fill: rgb(2,75,145); fill-rule: nonzero; opacity: 1;" vector-effect="non-scaling-stroke"  transform=" translate(-307.81, -254.67)" d="M 336.37 258.43 L 289.5 258.43 L 289.5 302.07 L 341.94 302.07 L 341.94 315.19 L 273.69 315.19 L 273.69 194.14999999999998 L 339.24 194.14999999999998 L 339.24 207.26 L 289.49 207.26 L 289.49 245.51 L 336.36 245.51 L 336.36 258.44 Z" stroke-linecap="round" />
</g>
		<g transform="matrix(1 0 0 1 -192.91 72.83)"  >
<path style="stroke: none; stroke-width: 1; stroke-dasharray: none; stroke-linecap: butt; stroke-dashoffset: 0; stroke-linejoin: miter; stroke-miterlimit: 4; fill: rgb(2,75,145); fill-rule: nonzero; opacity: 1;" vector-effect="non-scaling-stroke"  transform=" translate(-394.09, -270.83)" d="M 357.46 251.79 C 357.46 242.63 357.28 235.45 356.73999999999995 228.26999999999998 L 370.74999999999994 228.26999999999998 L 371.6499999999999 242.63 L 371.99999999999994 242.63 C 376.31999999999994 234.54999999999998 386.35999999999996 226.47 400.73999999999995 226.47 C 412.7699999999999 226.47 431.44999999999993 233.65 431.44999999999993 263.47 L 431.44999999999993 315.19000000000005 L 415.63999999999993 315.19000000000005 L 415.63999999999993 265.08000000000004 C 415.63999999999993 251.08000000000004 410.43999999999994 239.40000000000003 395.5299999999999 239.40000000000003 C 385.2899999999999 239.40000000000003 377.2099999999999 246.76000000000005 374.3399999999999 255.56000000000003 C 373.6199999999999 257.53000000000003 373.2699999999999 260.22 373.2699999999999 262.92 L 373.2699999999999 315.18 L 357.4599999999999 315.18 L 357.4599999999999 251.79000000000002 Z" stroke-linecap="round" />
</g>
		<g transform="matrix(1 0 0 1 -97.52 91.59)"  >
<path style="stroke: none; stroke-width: 1; stroke-dasharray: none; stroke-linecap: butt; stroke-dashoffset: 0; stroke-linejoin: miter; stroke-miterlimit: 4; fill: rgb(2,75,145); fill-rule: nonzero; opacity: 1;" vector-effect="non-scaling-stroke"  transform=" translate(-489.49, -289.6)" d="M 529.43 302.43 C 529.43 322.54 525.29 334.58 517.04 342.29 C 508.41999999999996 350.02000000000004 496.2 352.71000000000004 485.24999999999994 352.71000000000004 C 474.2999999999999 352.71000000000004 463.3399999999999 350.20000000000005 456.3399999999999 345.53000000000003 L 460.2999999999999 333.32000000000005 C 466.0399999999999 337.09000000000003 475.0199999999999 340.33000000000004 485.7999999999999 340.33000000000004 C 501.9499999999999 340.33000000000004 513.81 331.89000000000004 513.81 309.80000000000007 L 513.81 300.2800000000001 L 513.4499999999999 300.2800000000001 C 508.7899999999999 308.36000000000007 499.2699999999999 314.8300000000001 485.80999999999995 314.8300000000001 C 464.24999999999994 314.8300000000001 448.80999999999995 296.5100000000001 448.80999999999995 272.4500000000001 C 448.80999999999995 243.0000000000001 468.03 226.4800000000001 488.13999999999993 226.4800000000001 C 503.2299999999999 226.4800000000001 511.31999999999994 234.2000000000001 515.2599999999999 241.3800000000001 L 515.6099999999999 241.3800000000001 L 516.1599999999999 228.28000000000011 L 530.1699999999998 228.28000000000011 C 529.6199999999999 234.3800000000001 529.4499999999998 241.5700000000001 529.4499999999998 251.9800000000001 L 529.4499999999998 302.4500000000001 Z M 513.62 262.57 C 513.62 259.87 513.44 257.54 512.72 255.56 C 509.85 246.22 502.31 238.68 490.64000000000004 238.68 C 475.56000000000006 238.68 464.77000000000004 251.43 464.77000000000004 271.54 C 464.77000000000004 288.6 473.57000000000005 302.79 490.45000000000005 302.79 C 500.33000000000004 302.79 509.12000000000006 296.69 512.36 286.63 C 513.26 283.94 513.61 280.88 513.61 278.19 L 513.61 262.57 Z" stroke-linecap="round" />
</g>
		<g transform="matrix(1 0 0 1 -26.48 56.56)"  >
<path style="stroke: none; stroke-width: 1; stroke-dasharray: none; stroke-linecap: butt; stroke-dashoffset: 0; stroke-linejoin: miter; stroke-miterlimit: 4; fill: rgb(2,75,145); fill-rule: nonzero; opacity: 1;" vector-effect="non-scaling-stroke"  transform=" translate(-560.53, -254.57)" d="M 570.31 203.83 C 570.31 209.22 566.54 213.53 560.26 213.53 C 554.51 213.53 550.74 209.22 550.74 203.83 C 550.74 198.44000000000003 554.7 193.96 560.61 193.96 C 566.52 193.96 570.3100000000001 198.27 570.3100000000001 203.83 Z M 552.7099999999999 315.18 L 552.7099999999999 228.26 L 568.5199999999999 228.26 L 568.5199999999999 315.18 L 552.7099999999999 315.18 Z" stroke-linecap="round" />
</g>
		<g transform="matrix(1 0 0 1 41.45 72.83)"  >
<path style="stroke: none; stroke-width: 1; stroke-dasharray: none; stroke-linecap: butt; stroke-dashoffset: 0; stroke-linejoin: miter; stroke-miterlimit: 4; fill: rgb(2,75,145); fill-rule: nonzero; opacity: 1;" vector-effect="non-scaling-stroke"  transform=" translate(-628.46, -270.83)" d="M 591.83 251.79 C 591.83 242.63 591.6500000000001 235.45 591.11 228.26999999999998 L 605.12 228.26999999999998 L 606.01 242.63 L 606.37 242.63 C 610.68 234.54999999999998 620.73 226.47 635.1 226.47 C 647.14 226.47 665.8100000000001 233.65 665.8100000000001 263.47 L 665.8100000000001 315.19000000000005 L 650.0100000000001 315.19000000000005 L 650.0100000000001 265.08000000000004 C 650.0100000000001 251.08000000000004 644.8000000000001 239.40000000000003 629.9000000000001 239.40000000000003 C 619.6600000000001 239.40000000000003 611.58 246.76000000000005 608.71 255.56000000000003 C 607.99 257.53000000000003 607.63 260.22 607.63 262.92 L 607.63 315.18 L 591.83 315.18 L 591.83 251.79000000000002 Z" stroke-linecap="round" />
</g>
		<g transform="matrix(1 0 0 1 134.79 73.8)"  >
<path style="stroke: none; stroke-width: 1; stroke-dasharray: none; stroke-linecap: butt; stroke-dashoffset: 0; stroke-linejoin: miter; stroke-miterlimit: 4; fill: rgb(2,75,145); fill-rule: nonzero; opacity: 1;" vector-effect="non-scaling-stroke"  transform=" translate(-721.79, -271.8)" d="M 698.55 274.59 C 698.9 295.96 712.38 304.76 728.3599999999999 304.76 C 739.6699999999998 304.76 746.68 302.78 752.4199999999998 300.27 L 755.2899999999998 311.58 C 749.7199999999998 314.09999999999997 740.0299999999999 317.15 726.1999999999998 317.15 C 699.4299999999998 317.15 683.4599999999998 299.37 683.4599999999998 273.15 C 683.4599999999998 246.92999999999995 698.8899999999998 226.45999999999998 724.2099999999998 226.45999999999998 C 752.7699999999998 226.45999999999998 760.1299999999998 251.23999999999998 760.1299999999998 267.22999999999996 C 760.1299999999998 270.46 759.9499999999998 272.79999999999995 759.5899999999998 274.59 L 698.5299999999997 274.59 Z M 744.88 263.28 C 745.06 253.39999999999998 740.75 237.77999999999997 722.97 237.77999999999997 C 706.8100000000001 237.77999999999997 699.99 252.31999999999996 698.72 263.28 L 744.88 263.28 Z" stroke-linecap="round" />
</g>
		<g transform="matrix(1 0 0 1 224.05 73.8)"  >
<path style="stroke: none; stroke-width: 1; stroke-dasharray: none; stroke-linecap: butt; stroke-dashoffset: 0; stroke-linejoin: miter; stroke-miterlimit: 4; fill: rgb(2,75,145); fill-rule: nonzero; opacity: 1;" vector-effect="non-scaling-stroke"  transform=" translate(-811.06, -271.8)" d="M 787.81 274.59 C 788.17 295.96 801.64 304.76 817.63 304.76 C 828.9399999999999 304.76 835.9399999999999 302.78 841.6899999999999 300.27 L 844.55 311.58 C 838.99 314.09999999999997 829.29 317.15 815.4599999999999 317.15 C 788.7099999999999 317.15 772.7199999999999 299.37 772.7199999999999 273.15 C 772.7199999999999 246.92999999999995 788.17 226.45999999999998 813.4799999999999 226.45999999999998 C 842.0399999999998 226.45999999999998 849.3999999999999 251.23999999999998 849.3999999999999 267.22999999999996 C 849.3999999999999 270.46 849.2199999999999 272.79999999999995 848.8599999999999 274.59 L 787.7899999999998 274.59 Z M 834.15 263.28 C 834.3299999999999 253.39999999999998 830.01 237.77999999999997 812.24 237.77999999999997 C 796.08 237.77999999999997 789.25 252.31999999999996 787.99 263.28 L 834.15 263.28 Z" stroke-linecap="round" />
</g>
		<g transform="matrix(1 0 0 1 300.98 72.81)"  >
<path style="stroke: none; stroke-width: 1; stroke-dasharray: none; stroke-linecap: butt; stroke-dashoffset: 0; stroke-linejoin: miter; stroke-miterlimit: 4; fill: rgb(2,75,145); fill-rule: nonzero; opacity: 1;" vector-effect="non-scaling-stroke"  transform=" translate(-887.98, -270.82)" d="M 866.88 255.38 C 866.88 245.14 866.7 236.35 866.16 228.26999999999998 L 879.99 228.26999999999998 L 880.71 245.51 L 881.25 245.51 C 885.21 233.84 894.9 226.47 905.5 226.47 C 907.12 226.47 908.37 226.65 909.81 226.83 L 909.81 241.73000000000002 C 908.1899999999999 241.37 906.5699999999999 241.37 904.42 241.37 C 893.29 241.37 885.39 249.63 883.2299999999999 261.48 C 882.8799999999999 263.63 882.6899999999999 266.32 882.6899999999999 268.84000000000003 L 882.6899999999999 315.17 L 866.89 315.17 L 866.89 255.37 Z" stroke-linecap="round" />
</g>
		<g transform="matrix(1 0 0 1 344.3 56.56)"  >
<path style="stroke: none; stroke-width: 1; stroke-dasharray: none; stroke-linecap: butt; stroke-dashoffset: 0; stroke-linejoin: miter; stroke-miterlimit: 4; fill: rgb(2,75,145); fill-rule: nonzero; opacity: 1;" vector-effect="non-scaling-stroke"  transform=" translate(-931.31, -254.57)" d="M 941.09 203.83 C 941.09 209.22 937.32 213.53 931.0400000000001 213.53 C 925.2900000000001 213.53 921.5200000000001 209.22 921.5200000000001 203.83 C 921.5200000000001 198.44000000000003 925.4600000000002 193.96 931.3900000000001 193.96 C 937.32 193.96 941.0900000000001 198.27 941.0900000000001 203.83 Z M 923.49 315.18 L 923.49 228.26 L 939.29 228.26 L 939.29 315.18 L 923.49 315.18 Z" stroke-linecap="round" />
</g>
		<g transform="matrix(1 0 0 1 412.23 72.83)"  >
<path style="stroke: none; stroke-width: 1; stroke-dasharray: none; stroke-linecap: butt; stroke-dashoffset: 0; stroke-linejoin: miter; stroke-miterlimit: 4; fill: rgb(2,75,145); fill-rule: nonzero; opacity: 1;" vector-effect="non-scaling-stroke"  transform=" translate(-999.23, -270.83)" d="M 962.61 251.79 C 962.61 242.63 962.4300000000001 235.45 961.88 228.26999999999998 L 975.89 228.26999999999998 L 976.79 242.63 L 977.15 242.63 C 981.4599999999999 234.54999999999998 991.51 226.47 1005.88 226.47 C 1017.92 226.47 1036.59 233.65 1036.59 263.47 L 1036.59 315.19000000000005 L 1020.79 315.19000000000005 L 1020.79 265.08000000000004 C 1020.79 251.08000000000004 1015.5799999999999 239.40000000000003 1000.67 239.40000000000003 C 990.43 239.40000000000003 982.36 246.76000000000005 979.49 255.56000000000003 C 978.76 257.53000000000003 978.41 260.22 978.41 262.92 L 978.41 315.18 L 962.61 315.18 L 962.61 251.79000000000002 Z" stroke-linecap="round" />
</g>
		<g transform="matrix(1 0 0 1 507.63 91.59)"  >
<path style="stroke: none; stroke-width: 1; stroke-dasharray: none; stroke-linecap: butt; stroke-dashoffset: 0; stroke-linejoin: miter; stroke-miterlimit: 4; fill: rgb(2,75,145); fill-rule: nonzero; opacity: 1;" vector-effect="non-scaling-stroke"  transform=" translate(-1094.63, -289.6)" d="M 1134.57 302.43 C 1134.57 322.54 1130.4399999999998 334.58 1122.1799999999998 342.29 C 1113.56 350.02000000000004 1101.34 352.71000000000004 1090.3999999999999 352.71000000000004 C 1079.4599999999998 352.71000000000004 1068.4899999999998 350.20000000000005 1061.4799999999998 345.53000000000003 L 1065.4399999999998 333.32000000000005 C 1071.1899999999998 337.09000000000003 1080.1699999999998 340.33000000000004 1090.9399999999998 340.33000000000004 C 1107.1 340.33000000000004 1118.9499999999998 331.89000000000004 1118.9499999999998 309.80000000000007 L 1118.9499999999998 300.2800000000001 L 1118.6 300.2800000000001 C 1113.9299999999998 308.36000000000007 1104.4099999999999 314.8300000000001 1090.9499999999998 314.8300000000001 C 1069.3899999999999 314.8300000000001 1053.9599999999998 296.5100000000001 1053.9599999999998 272.4500000000001 C 1053.9599999999998 243.0000000000001 1073.1699999999998 226.4800000000001 1093.2899999999997 226.4800000000001 C 1108.3699999999997 226.4800000000001 1116.4499999999998 234.2000000000001 1120.4099999999996 241.3800000000001 L 1120.7599999999995 241.3800000000001 L 1121.2999999999995 228.28000000000011 L 1135.3099999999995 228.28000000000011 C 1134.7699999999995 234.3800000000001 1134.5899999999995 241.5700000000001 1134.5899999999995 251.9800000000001 L 1134.5899999999995 302.4500000000001 Z M 1118.77 262.57 C 1118.77 259.87 1118.59 257.54 1117.87 255.56 C 1115 246.22 1107.4499999999998 238.68 1095.78 238.68 C 1080.7 238.68 1069.93 251.43 1069.93 271.54 C 1069.93 288.6 1078.73 302.79 1095.6000000000001 302.79 C 1105.4800000000002 302.79 1114.2800000000002 296.69 1117.5200000000002 286.63 C 1118.4100000000003 283.94 1118.7700000000002 280.88 1118.7700000000002 278.19 L 1118.7700000000002 262.57 Z" stroke-linecap="round" />
</g>
</g>
</g>
<g transform="matrix(NaN NaN NaN NaN 0 0)"  >
<g style=""   >
</g>
</g>
<g transform="matrix(NaN NaN NaN NaN 0 0)"  >
<g style=""   >
</g>
</g>
</svg>