<svg xmlns="http://www.w3.org/2000/svg" id="uuid-fac56558-7b6e-4f2a-a9ae-1982923b9512" width="1174" height="396" viewBox="0 0 1174 396"><defs><style>.uuid-226c4a80-1e4c-4b85-aa64-931f6a5f39b7{fill:#fff;}</style></defs><path class="uuid-226c4a80-1e4c-4b85-aa64-931f6a5f39b7" d="M124.93,201.69l-.71,1.7v103.28l4.11,1.77,39.78-38.16v-12.32l-1.98-.85-28.88,27.68-2.13-.85v-28.46l.85-1.77,31.43-30.16,.71-1.77v-11.25l-1.98-.86-28.88,27.68-2.13-.92v-28.89l.43-.92,32.57-31.22v-12.32l-1.98-.85-41.2,39.43Zm-8.92-160.84L38.71,114.97v166.01l77.3,74.18,77.3-74.18V114.97L116.01,40.85Zm68.52,236.44l-68.52,65.76-68.67-65.76V118.72L116.01,52.88l68.52,65.84v158.57Zm-19.27-98.57c.18-.15,.32-.48,.31-.73l-.31,.73Zm-68.66,15.82v89.19l-2.12,.86-19.4-18.62-.28-.92v-94.3l-8.92-8.5-2.12,.85v106.12l.85,1.76,38.8,37.24,4.09-1.77v-104.27l-8.91-8.49-1.99,.85Zm19.38-115.92l-.02-.03-8.47,18.66h.01v.02h-.03l.02-.02-.87,.4-1.25,.54-.61-.17-10.65-3.05v.05l-.07-.02,6.23,27.9-1.19,.78-1.54,.96-7.4-5.88-6.97-5.58-.02,.03-.02-.02-3.82,6.23-.86,.43-.83,.4h.03l-.04,.02h0v-.02l-12.65-1.42,1.35,9.94,1.11,8.48-1.13,1.84-4.11,1.42,34.95,32.43,1.41,1.31-.02-.02,.02,.02h0l.03,.03h.02l4.49,2.75,4.98,1.9,5.24,.97h5.33l5.24-.97,4.97-1.9,4.49-2.75h.07l23.3-21.71,12.99-12.08-4.94-1.69v.02l-.06-.02-.02-.03,.08,.03-1.16-1.97v.03l-.02-.04v-.03l.02,.03,2.02-10.8,1.36-7.19h-.02v-.02l-13.32,1.49-1.79-.96-3.09-6.19-.05,.04v-.03l-14.11,11.31-.19,.15h0l-2.79-1.75v.02l-.05-.03,.02-.11,.02,.12,6.21-27.94-5.02,1.44-6.31,1.78-2-.92-8.49-18.68-.02,.03Zm22.19,126.51l.31-.73c-.19,.16-.33,.49-.31,.73Z"/><g><path class="uuid-226c4a80-1e4c-4b85-aa64-931f6a5f39b7" d="M285.09,49.56V121.39c0,26.94,12.03,38.43,28.19,38.43,17.78,0,29.45-11.85,29.45-38.43V49.56h15.81V120.32c0,37.17-19.58,52.26-45.79,52.26-24.78,0-43.46-14.01-43.46-51.73V49.56h15.8Z"/><path class="uuid-226c4a80-1e4c-4b85-aa64-931f6a5f39b7" d="M381.65,107.21c0-9.16-.18-16.34-.72-23.52h14.01l.9,14.36h.36c4.31-8.08,14.37-16.16,28.73-16.16,12.03,0,30.71,7.18,30.71,37v51.72h-15.8v-50.11c0-14-5.21-25.68-20.11-25.68-10.24,0-18.32,7.36-21.19,16.16-.72,1.97-1.08,4.66-1.08,7.36v52.26h-15.81v-63.39Z"/><path class="uuid-226c4a80-1e4c-4b85-aa64-931f6a5f39b7" d="M495.75,59.25c0,5.39-3.77,9.7-10.06,9.7-5.75,0-9.52-4.31-9.52-9.7s3.95-9.87,9.88-9.87,9.7,4.31,9.7,9.87Zm-17.6,111.35V83.68h15.8v86.92h-15.8Z"/><path class="uuid-226c4a80-1e4c-4b85-aa64-931f6a5f39b7" d="M519.48,170.6V95.71h-12.03v-12.03h12.03v-4.86c0-22.8,13.47-37.71,37.89-37.71,8.08,0,17.6,2.51,22.09,5.75l-4.49,12.04c-3.95-2.7-10.59-5.03-18.32-5.03-16.7,0-21.55,11.67-21.55,25.5v4.31h50.46v86.92h-15.81V95.71h-34.66v74.89h-15.62Z"/><path class="uuid-226c4a80-1e4c-4b85-aa64-931f6a5f39b7" d="M618.65,130.01c.36,21.37,13.83,30.17,29.81,30.17,11.31,0,18.32-1.98,24.06-4.49l2.87,11.31c-5.57,2.52-15.26,5.57-29.09,5.57-26.76,0-42.74-17.78-42.74-44s15.45-46.69,40.77-46.69c28.55,0,35.92,24.78,35.92,40.77,0,3.23-.19,5.57-.54,7.36h-61.06Zm46.33-11.31c.18-9.88-4.13-25.5-21.91-25.5-16.16,0-22.99,14.54-24.24,25.5h46.15Z"/><path class="uuid-226c4a80-1e4c-4b85-aa64-931f6a5f39b7" d="M774.01,43.1v105.05c0,7.72,.36,16.52,.71,22.45h-14.01l-.72-15.09h-.54c-4.67,9.7-15.08,17.06-29.27,17.06-21.01,0-37.35-17.78-37.35-44.18-.18-28.91,17.96-46.52,38.97-46.52,13.47,0,22.27,6.29,26.22,13.11h.36V43.1h15.62Zm-15.62,75.96c0-1.97-.18-4.66-.72-6.65-2.33-9.87-10.95-18.14-22.81-18.14-16.34,0-26.04,14.37-26.04,33.41,0,17.6,8.8,32.14,25.68,32.14,10.6,0,20.29-7.18,23.17-18.85,.54-2.15,.72-4.31,.72-6.82v-15.09Z"/><path class="uuid-226c4a80-1e4c-4b85-aa64-931f6a5f39b7" d="M336.37,258.43h-46.87v43.64h52.44v13.12h-68.25v-121.04h65.55v13.11h-49.75v38.25h46.87v12.93Z"/><path class="uuid-226c4a80-1e4c-4b85-aa64-931f6a5f39b7" d="M357.46,251.79c0-9.16-.18-16.34-.72-23.52h14.01l.9,14.36h.35c4.32-8.08,14.36-16.16,28.74-16.16,12.03,0,30.71,7.18,30.71,37v51.72h-15.81v-50.11c0-14-5.2-25.68-20.11-25.68-10.24,0-18.32,7.36-21.19,16.16-.72,1.97-1.07,4.66-1.07,7.36v52.26h-15.81v-63.39Z"/><path class="uuid-226c4a80-1e4c-4b85-aa64-931f6a5f39b7" d="M529.43,302.43c0,20.11-4.14,32.15-12.39,39.86-8.62,7.73-20.84,10.42-31.79,10.42s-21.91-2.51-28.91-7.18l3.96-12.21c5.74,3.77,14.72,7.01,25.5,7.01,16.15,0,28.01-8.44,28.01-30.53v-9.52h-.36c-4.66,8.08-14.18,14.55-27.64,14.55-21.56,0-37-18.32-37-42.38,0-29.45,19.22-45.97,39.33-45.97,15.09,0,23.18,7.72,27.12,14.9h.35l.55-13.1h14.01c-.55,6.1-.72,13.29-.72,23.7v50.47Zm-15.81-39.86c0-2.7-.18-5.03-.9-7.01-2.87-9.34-10.41-16.88-22.08-16.88-15.08,0-25.87,12.75-25.87,32.86,0,17.06,8.8,31.25,25.68,31.25,9.88,0,18.67-6.1,21.91-16.16,.9-2.69,1.25-5.75,1.25-8.44v-15.62Z"/><path class="uuid-226c4a80-1e4c-4b85-aa64-931f6a5f39b7" d="M570.31,203.83c0,5.39-3.77,9.7-10.05,9.7-5.75,0-9.52-4.31-9.52-9.7s3.96-9.87,9.87-9.87,9.7,4.31,9.7,9.87Zm-17.6,111.35v-86.92h15.81v86.92h-15.81Z"/><path class="uuid-226c4a80-1e4c-4b85-aa64-931f6a5f39b7" d="M591.83,251.79c0-9.16-.18-16.34-.72-23.52h14.01l.89,14.36h.36c4.31-8.08,14.36-16.16,28.73-16.16,12.04,0,30.71,7.18,30.71,37v51.72h-15.8v-50.11c0-14-5.21-25.68-20.11-25.68-10.24,0-18.32,7.36-21.19,16.16-.72,1.97-1.08,4.66-1.08,7.36v52.26h-15.8v-63.39Z"/><path class="uuid-226c4a80-1e4c-4b85-aa64-931f6a5f39b7" d="M698.55,274.59c.35,21.37,13.83,30.17,29.81,30.17,11.31,0,18.32-1.98,24.06-4.49l2.87,11.31c-5.57,2.52-15.26,5.57-29.09,5.57-26.77,0-42.74-17.78-42.74-44s15.43-46.69,40.75-46.69c28.56,0,35.92,24.78,35.92,40.77,0,3.23-.18,5.57-.54,7.36h-61.06Zm46.33-11.31c.18-9.88-4.13-25.5-21.91-25.5-16.16,0-22.98,14.54-24.25,25.5h46.16Z"/><path class="uuid-226c4a80-1e4c-4b85-aa64-931f6a5f39b7" d="M787.81,274.59c.36,21.37,13.83,30.17,29.82,30.17,11.31,0,18.31-1.98,24.06-4.49l2.86,11.31c-5.56,2.52-15.26,5.57-29.09,5.57-26.75,0-42.74-17.78-42.74-44s15.45-46.69,40.76-46.69c28.56,0,35.92,24.78,35.92,40.77,0,3.23-.18,5.57-.54,7.36h-61.07Zm46.34-11.31c.18-9.88-4.14-25.5-21.91-25.5-16.16,0-22.99,14.54-24.25,25.5h46.16Z"/><path class="uuid-226c4a80-1e4c-4b85-aa64-931f6a5f39b7" d="M866.88,255.38c0-10.24-.18-19.03-.72-27.11h13.83l.72,17.24h.54c3.96-11.67,13.65-19.04,24.25-19.04,1.62,0,2.87,.18,4.31,.36v14.9c-1.62-.36-3.24-.36-5.39-.36-11.13,0-19.03,8.26-21.19,20.11-.35,2.15-.54,4.84-.54,7.36v46.33h-15.8v-59.8Z"/><path class="uuid-226c4a80-1e4c-4b85-aa64-931f6a5f39b7" d="M941.09,203.83c0,5.39-3.77,9.7-10.05,9.7-5.75,0-9.52-4.31-9.52-9.7s3.94-9.87,9.87-9.87,9.7,4.31,9.7,9.87Zm-17.6,111.35v-86.92h15.8v86.92h-15.8Z"/><path class="uuid-226c4a80-1e4c-4b85-aa64-931f6a5f39b7" d="M962.61,251.79c0-9.16-.18-16.34-.73-23.52h14.01l.9,14.36h.36c4.31-8.08,14.36-16.16,28.73-16.16,12.04,0,30.71,7.18,30.71,37v51.72h-15.8v-50.11c0-14-5.21-25.68-20.12-25.68-10.24,0-18.31,7.36-21.18,16.16-.73,1.97-1.08,4.66-1.08,7.36v52.26h-15.8v-63.39Z"/><path class="uuid-226c4a80-1e4c-4b85-aa64-931f6a5f39b7" d="M1134.57,302.43c0,20.11-4.13,32.15-12.39,39.86-8.62,7.73-20.84,10.42-31.78,10.42s-21.91-2.51-28.92-7.18l3.96-12.21c5.75,3.77,14.73,7.01,25.5,7.01,16.16,0,28.01-8.44,28.01-30.53v-9.52h-.35c-4.67,8.08-14.19,14.55-27.65,14.55-21.56,0-36.99-18.32-36.99-42.38,0-29.45,19.21-45.97,39.33-45.97,15.08,0,23.16,7.72,27.12,14.9h.35l.54-13.1h14.01c-.54,6.1-.72,13.29-.72,23.7v50.47Zm-15.8-39.86c0-2.7-.18-5.03-.9-7.01-2.87-9.34-10.42-16.88-22.09-16.88-15.08,0-25.85,12.75-25.85,32.86,0,17.06,8.8,31.25,25.67,31.25,9.88,0,18.68-6.1,21.92-16.16,.89-2.69,1.25-5.75,1.25-8.44v-15.62Z"/></g></svg>