<?xml version="1.0" encoding="UTF-8" standalone="no" ?>
<!DOCTYPE svg PUBLIC "-//W3C//DTD SVG 1.1//EN" "http://www.w3.org/Graphics/SVG/1.1/DTD/svg11.dtd">
<svg xmlns="http://www.w3.org/2000/svg" xmlns:xlink="http://www.w3.org/1999/xlink" version="1.1" width="1080" height="1080" viewBox="0 0 1080 1080" xml:space="preserve">
<desc>Created with Fabric.js 5.2.4</desc>
<defs>
</defs>
<rect x="0" y="0" width="100%" height="100%" fill="transparent"></rect>
<g transform="matrix(1 0 0 1 540 540)" id="ac24ef92-5398-42d2-a924-042c548fefc5"  >
<rect style="stroke: none; stroke-width: 1; stroke-dasharray: none; stroke-linecap: butt; stroke-dashoffset: 0; stroke-linejoin: miter; stroke-miterlimit: 4; fill: rgb(255,255,255); fill-rule: nonzero; opacity: 1; visibility: hidden;" vector-effect="non-scaling-stroke"  x="-540" y="-540" rx="0" ry="0" width="1080" height="1080" />
</g>
<g transform="matrix(1 0 0 1 540 540)" id="4968658b-0c65-4f4e-b011-74b3a24075f3"  >
</g>
<g transform="matrix(NaN NaN NaN NaN 0 0)"  >
<g style=""   >
</g>
</g>
<g transform="matrix(NaN NaN NaN NaN 0 0)"  >
<g style=""   >
</g>
</g>
<g transform="matrix(0.83 0 0 0.83 501.01 483.46)"  >
<path style="stroke: none; stroke-width: 1; stroke-dasharray: none; stroke-linecap: butt; stroke-dashoffset: 0; stroke-linejoin: miter; stroke-miterlimit: 4; fill: rgb(2,75,145); fill-rule: nonzero; opacity: 1;" vector-effect="non-scaling-stroke"  transform=" translate(-116.01, -198.01)" d="M 124.93 201.69 L 124.22000000000001 203.39 L 124.22000000000001 306.66999999999996 L 128.33 308.43999999999994 L 168.11 270.28 L 168.11 257.96 L 166.13000000000002 257.10999999999996 L 137.25000000000003 284.78999999999996 L 135.12000000000003 283.93999999999994 L 135.12000000000003 255.47999999999993 L 135.97000000000003 253.70999999999992 L 167.40000000000003 223.54999999999993 L 168.11000000000004 221.77999999999992 L 168.11000000000004 210.52999999999992 L 166.13000000000005 209.6699999999999 L 137.25000000000006 237.3499999999999 L 135.12000000000006 236.42999999999992 L 135.12000000000006 207.5399999999999 L 135.55000000000007 206.61999999999992 L 168.12000000000006 175.39999999999992 L 168.12000000000006 163.07999999999993 L 166.14000000000007 162.22999999999993 L 124.94000000000007 201.65999999999994 Z M 116.01 40.849999999999994 L 38.71 114.97 L 38.71 280.98 L 116.00999999999999 355.16 L 193.31 280.98 L 193.31 114.97 L 116.01 40.85 Z M 184.53 277.28999999999996 L 116.01 343.04999999999995 L 47.34 277.28999999999996 L 47.34 118.72 L 116.01 52.88 L 184.53 118.72 L 184.53 277.28999999999996 Z M 165.26 178.71999999999997 C 165.44 178.56999999999996 165.57999999999998 178.23999999999998 165.57 177.98999999999998 L 165.26 178.71999999999997 Z M 96.6 194.53999999999996 L 96.6 283.72999999999996 L 94.47999999999999 284.59 L 75.07999999999998 265.96999999999997 L 74.79999999999998 265.04999999999995 L 74.79999999999998 170.74999999999994 L 65.87999999999998 162.24999999999994 L 63.759999999999984 163.09999999999994 L 63.759999999999984 269.2199999999999 L 64.60999999999999 270.9799999999999 L 103.40999999999998 308.2199999999999 L 107.49999999999999 306.44999999999993 L 107.49999999999999 202.17999999999995 L 98.58999999999999 193.68999999999994 L 96.6 194.53999999999994 Z M 115.97999999999999 78.61999999999996 L 115.96 78.58999999999996 L 107.49 97.24999999999996 L 107.5 97.24999999999996 L 107.5 97.26999999999995 L 107.47 97.26999999999995 L 107.49 97.24999999999996 L 106.61999999999999 97.64999999999996 L 105.36999999999999 98.18999999999997 L 104.75999999999999 98.01999999999997 L 94.10999999999999 94.96999999999997 L 94.10999999999999 95.01999999999997 L 94.03999999999999 94.99999999999997 L 100.27 122.89999999999998 L 99.08 123.67999999999998 L 97.53999999999999 124.63999999999997 L 90.13999999999999 118.75999999999998 L 83.16999999999999 113.17999999999998 L 83.14999999999999 113.20999999999998 L 83.13 113.18999999999998 L 79.31 119.41999999999999 L 78.45 119.85 L 77.62 120.25 L 77.65 120.25 L 77.61 120.27 L 77.61 120.27 L 77.61 120.25 L 64.96 118.83 L 66.30999999999999 128.77 L 67.41999999999999 137.25 L 66.28999999999999 139.09 L 62.17999999999999 140.51 L 97.13 172.94 L 98.53999999999999 174.25 L 98.52 174.23 L 98.53999999999999 174.25 L 98.53999999999999 174.25 L 98.57 174.28 L 98.58999999999999 174.28 L 103.07999999999998 177.03 L 108.05999999999999 178.93 L 113.29999999999998 179.9 L 118.62999999999998 179.9 L 123.86999999999998 178.93 L 128.83999999999997 177.03 L 133.32999999999998 174.28 L 133.39999999999998 174.28 L 156.7 152.57 L 169.69 140.48999999999998 L 164.75 138.79999999999998 L 164.75 138.82 L 164.69 138.79999999999998 L 164.67 138.76999999999998 L 164.75 138.79999999999998 L 163.59 136.82999999999998 L 163.59 136.85999999999999 L 163.57 136.82 L 163.57 136.79 L 163.59 136.82 L 165.61 126.02 L 166.97000000000003 118.83 L 166.95000000000002 118.83 L 166.95000000000002 118.81 L 153.63000000000002 120.3 L 151.84000000000003 119.34 L 148.75000000000003 113.15 L 148.70000000000002 113.19000000000001 L 148.70000000000002 113.16000000000001 L 134.59000000000003 124.47000000000001 L 134.40000000000003 124.62000000000002 L 134.40000000000003 124.62000000000002 L 131.61000000000004 122.87000000000002 L 131.61000000000004 122.89000000000001 L 131.56000000000003 122.86000000000001 L 131.58000000000004 122.75000000000001 L 131.60000000000005 122.87000000000002 L 137.81000000000006 94.93000000000002 L 132.79000000000005 96.37000000000002 L 126.48000000000005 98.15000000000002 L 124.48000000000005 97.23000000000002 L 115.99000000000005 78.55000000000001 L 115.97000000000006 78.58000000000001 Z M 138.17 205.12999999999997 L 138.48 204.39999999999998 C 138.29 204.55999999999997 138.14999999999998 204.89 138.17 205.12999999999997 Z" stroke-linecap="round" />
</g>
</svg>